<svg xmlns="http://www.w3.org/2000/svg" data-name="Layer 1" viewBox="0 0 64 64"><rect width="2" height="2" x="16" y="30" fill="#f71735"/><rect width="2" height="2" x="16" y="34" fill="#f71735"/><rect width="2" height="2" x="42" y="16" fill="#f71735"/><rect width="2" height="2" x="46" y="16" fill="#f71735"/><rect width="2" height="2" x="38" y="16" fill="#f71735"/><rect width="2" height="2" x="46" y="20" fill="#f71735"/><rect width="2" height="2" x="16" y="38" fill="#f71735"/><rect width="2" height="2" x="16" y="42" fill="#f71735"/><rect width="2" height="2" x="20" y="54" fill="#f71735"/><rect width="2" height="2" x="16" y="46" fill="#f71735"/><rect width="2" height="2" x="16" y="50" fill="#f71735"/><rect width="2" height="2" x="16" y="54" fill="#f71735"/><polygon fill="#f71735" points="28 55 24 52 24 58 28 55"/><polygon fill="#f71735" points="32 17 36 14 36 20 32 17"/><path fill="#f71735" d="M18.408,4.309,17,5.7,15.592,4.309a8.018,8.018,0,0,0-11.26,0,7.829,7.829,0,0,0,0,11.149L5.74,16.851,17,28,28.26,16.851l1.408-1.393a7.829,7.829,0,0,0,0-11.149A8.018,8.018,0,0,0,18.408,4.309Z"/><path fill="#fec3a6" d="M17,16V14a7.008,7.008,0,0,0,7-7h2A9.011,9.011,0,0,1,17,16Z"/><path fill="#1b98e0" d="M32,62H62V54.469A9.468,9.468,0,0,0,52.531,45L47,52l-5.531-7A9.468,9.468,0,0,0,32,54.469Z"/><rect width="2" height="2" x="46" y="55" fill="#41ead4" rx="1"/><rect width="2" height="2" x="46" y="58" fill="#41ead4" rx="1"/><path fill="#2d3142" d="M55 62H53V57a1 1 0 0 1 1-1h0a1 1 0 0 1 1 1zM41 62H39V57a1 1 0 0 1 1-1h0a1 1 0 0 1 1 1zM57.95 36H58V32.22A8.22 8.22 0 0 0 49.78 24H44.22A8.22 8.22 0 0 0 36 32.22V36H57.95z"/><path fill="#fec3a6" d="M56,34.531h0a2.8,2.8,0,0,0-2.8-2.8H52L44,28l1,3.732H40.8a2.8,2.8,0,0,0-2.8,2.8h0A1.936,1.936,0,0,0,36,36.4h0a1.937,1.937,0,0,0,2,1.866h0v3.865a4.1,4.1,0,0,0,2.61,3.748l3.953,1.639a6.362,6.362,0,0,0,4.874,0l3.953-1.639A4.1,4.1,0,0,0,56,42.128V38.263h0A1.937,1.937,0,0,0,58,36.4h0A1.936,1.936,0,0,0,56,34.531Z"/><path fill="#2d3142" d="M46 37H44a1 1 0 0 0-2 0H40a3 3 0 0 1 6 0zM54 37H52a1 1 0 0 0-2 0H48a3 3 0 0 1 6 0z"/><path fill="#f71735" d="M47,44c-2.243,0-4-1.318-4-3h2c0,.408.779,1,2,1s2-.592,2-1h2C51,42.682,49.243,44,47,44Z"/></svg>