<svg xmlns="http://www.w3.org/2000/svg" width="128" height="128" data-name="Layer 1"><path d="M111 23a6.007 6.007 0 0 0-6-6H23a6.007 6.007 0 0 0-6 6v82a6.007 6.007 0 0 0 6 6h82a6.007 6.007 0 0 0 6-6zm-4 82a2.003 2.003 0 0 1-2 2H23a2.003 2.003 0 0 1-2-2V23a2.003 2.003 0 0 1 2-2h82a2.003 2.003 0 0 1 2 2zM2 14h10a2 2 0 0 0 2-2V2a2 2 0 0 0-2-2H2a2 2 0 0 0-2 2v10a2 2 0 0 0 2 2zM4 4h6v6H4zM2 128h10a2 2 0 0 0 2-2v-10a2 2 0 0 0-2-2H2a2 2 0 0 0-2 2v10a2 2 0 0 0 2 2zm2-10h6v6H4zM126 0h-10a2 2 0 0 0-2 2v10a2 2 0 0 0 2 2h10a2 2 0 0 0 2-2V2a2 2 0 0 0-2-2zm-2 10h-6V4h6zM119 18h4v92h-4z"/><path d="M126 114h-10a2 2 0 0 0-2 2v10a2 2 0 0 0 2 2h10a2 2 0 0 0 2-2v-10a2 2 0 0 0-2-2zm-2 10h-6v-6h6zM89.937 42.29a5.822 5.822 0 0 0-7.771 2.191l-2.972 5.101 1.583-16.167a5.67 5.67 0 0 0-11.195-1.64 1.207 1.207 0 0 0-.019.104l-1.8 11.98-3.315-14.585a2.088 2.088 0 0 0-.034-.129 5.806 5.806 0 0 0-3.062-3.563 5.938 5.938 0 0 0-4.807-.14 5.729 5.729 0 0 0-3.474 6.598l2.971 16.506h-9.44a6.46 6.46 0 0 0-5.796 3.563L35.659 62.3a4.391 4.391 0 0 0-.263 4.12 3.475 3.475 0 0 0 .193.345 5.279 5.279 0 0 0-.214 4.048l2.533 7.346a6 6 0 0 0 1.757 2.591l6.646 5.722 7.857 7.674a2.496 2.496 0 0 1 .748 1.776V101a2 2 0 0 0 4 0v-5.08a6.522 6.522 0 0 0-1.953-4.636l-7.903-7.719c-.03-.029-.06-.057-.092-.085l-6.693-5.762a1.996 1.996 0 0 1-.586-.864l-2.533-7.346a1.152 1.152 0 0 1 .137-1.15.575.575 0 0 1 .108-.097c.24-.01.475-.026.705-.05a6.08 6.08 0 0 1 4.273 4.271 2 2 0 0 0 1.274 1.235l7.003 2.238a2.006 2.006 0 0 0 2.203-.697l4.711-6.219a1.999 1.999 0 0 0 .278-1.915l-3.056-8.085a2.001 2.001 0 0 0-2.84-1.043 6.365 6.365 0 0 1-6.111-.562 2.006 2.006 0 0 0-3.049 1.41c-.077.525-.805 4.643-4.72 5.327a5.088 5.088 0 0 0-.89.026l.003-.007 5.191-10.278a2.48 2.48 0 0 1 2.226-1.366h11.833a2 2 0 0 0 1.968-2.355L57 31.281a1.542 1.542 0 0 0-.024-.113 1.752 1.752 0 0 1 1.083-2.022 1.933 1.933 0 0 1 1.568.044 1.775 1.775 0 0 1 .94 1.048l5.647 24.852a2 2 0 0 0 3.928-.147l3.369-22.407a1.678 1.678 0 0 1 1.908-1.218 1.608 1.608 0 0 1 1.379 1.706L74.32 58.307a2 2 0 0 0 3.719 1.202l7.582-13.014a1.85 1.85 0 0 1 2.448-.669 1.671 1.671 0 0 1 .798 2.142l-11.15 21.556a2.046 2.046 0 0 0-.177.493l-4.312 19.72a6.492 6.492 0 0 0-.148 1.381v9.716a2 2 0 0 0 4 0v-9.716a2.517 2.517 0 0 1 .057-.53l4.255-19.46L92.449 49.75c.016-.03.03-.062.045-.092a5.695 5.695 0 0 0-2.557-7.37zM48.06 61.956a10.312 10.312 0 0 0 5.675.307l1.98 5.24-3.188 4.21-4.756-1.52a10.638 10.638 0 0 0-2.85-3.9 10.547 10.547 0 0 0 3.139-4.337zM18 119h92v4H18zM18 5h92v4H18zM5 18h4v92H5z"/></svg>